<?xml version="1.0" standalone="no"?><!DOCTYPE svg PUBLIC "-//W3C//DTD SVG 1.1//EN" "http://www.w3.org/Graphics/SVG/1.1/DTD/svg11.dtd"><svg t="1520848328305" class="icon" style="" viewBox="0 0 1024 1024" version="1.1" xmlns="http://www.w3.org/2000/svg" p-id="3139" xmlns:xlink="http://www.w3.org/1999/xlink" width="18" height="18"><defs><style type="text/css"></style></defs><path d="M510.596024 1024c-210.943316 0-382.565069-171.606403-382.565069-382.565069L128.030955 450.152397l765.130138 0 0 191.282534C893.161093 852.393597 721.53934 1024 510.596024 1024zM191.791118 513.912559l0 127.521349c0 175.778422 143.010111 318.803883 318.803883 318.803883s318.803883-143.026484 318.803883-318.803883L829.398884 513.912559 191.791118 513.912559z" p-id="3140" fill="#1296db"></path><path d="M510.596024 864.597547c-52.459792 0-95.205339-42.466184-95.641267-94.831832l0-64.570621c0-52.740178 42.901089-95.641267 95.641267-95.641267s95.641267 42.901089 95.641267 95.641267l0 64.570621C605.801363 822.131363 563.055816 864.597547 510.596024 864.597547zM510.596024 673.315012c-17.574261 0-31.880081 14.290471-31.880081 31.880081l0 63.761186c0 17.590634 14.305821 31.880081 31.880081 31.880081s31.880081-14.290471 31.880081-31.880081l0-63.761186C542.476105 687.605483 528.170285 673.315012 510.596024 673.315012z" p-id="3141" fill="#1296db"></path><path d="M765.639744 386.391211l-63.761186 0L701.878558 248.844531c0-99.93813-85.803201-181.257204-191.282534-181.257204s-191.282534 81.320097-191.282534 181.257204l0 137.546679-63.761186 0L255.552304 248.844531c0-135.118374 114.414843-245.01839 255.04372-245.01839S765.639744 113.726158 765.639744 248.844531L765.639744 386.391211z" p-id="3142" fill="#1296db"></path></svg>